<?xml version="1.0" encoding="utf-8"?>
<!-- Generator: Adobe Illustrator 16.0.3, SVG Export Plug-In . SVG Version: 6.00 Build 0)  -->
<!DOCTYPE svg PUBLIC "-//W3C//DTD SVG 1.1//EN" "http://www.w3.org/Graphics/SVG/1.1/DTD/svg11.dtd">
<svg version="1.1" id="Layer_1" xmlns="http://www.w3.org/2000/svg" xmlns:xlink="http://www.w3.org/1999/xlink" x="0px" y="0px"
	 fill='#FFFFFF' width="100px" height="100px" viewBox="0 0 100 100" enable-background="new 0 0 100 100" xml:space="preserve">
<path d="M99.998,58.457l0.003-16.912l-13.168-0.001c-0.96-4.172-2.61-8.073-4.824-11.595l9.324-9.325L79.375,8.665l-9.325,9.326
	c-3.521-2.215-7.423-3.867-11.595-4.824V0H41.543v13.167c-4.172,0.958-8.072,2.609-11.594,4.823l-9.325-9.325L8.666,20.625
	l9.325,9.325c-2.214,3.522-3.865,7.422-4.823,11.593L0.001,41.541l-0.002,16.913l13.168,0.002c0.958,4.172,2.609,8.073,4.824,11.595
	l-9.327,9.325l11.958,11.958l9.327-9.325c3.521,2.215,7.422,3.864,11.592,4.822l-0.001,13.168L58.453,100l0.002-13.167
	c4.172-0.958,8.073-2.61,11.595-4.825l9.325,9.325l11.958-11.958l-9.324-9.325c2.214-3.521,3.864-7.423,4.822-11.595L99.998,58.457z
	 M50,70.907c-11.528,0-20.907-9.381-20.907-20.908c0-11.528,9.378-20.907,20.907-20.907c11.527,0,20.908,9.378,20.908,20.907
	C70.908,61.526,61.527,70.907,50,70.907z"/>
</svg>
